<svg width="12" height="16" viewBox="0 0 12 16" fill="none" xmlns="http://www.w3.org/2000/svg">
<path fill-rule="evenodd" clip-rule="evenodd" d="M0 2.66667V0H7.05882C9.78776 0 12 2.08933 12 4.66667C12 7.244 9.78776 9.33333 7.05882 9.33333H2.82353L2.82353 11.5H0V9.33333V6.66667H7.05882C8.22833 6.66667 9.17647 5.77133 9.17647 4.66667C9.17647 3.56213 8.22833 2.66667 7.05896 2.66667H0ZM1.5 16C2.32843 16 3 15.3284 3 14.5C3 13.6716 2.32843 13 1.5 13C0.671571 13 0 13.6716 0 14.5C0 15.3284 0.671571 16 1.5 16Z" fill="white"/>
</svg>
