<svg width="16" height="16" viewBox="0 0 17 17" fill="none" xmlns="http://www.w3.org/2000/svg">
<path fill-rule="evenodd" clip-rule="evenodd" d="M4.25 13.5C5.07843 13.5 5.75 14.1716 5.75 15C5.75 15.8284 5.07843 16.5 4.25 16.5C3.42157 16.5 2.75 15.8284 2.75 15C2.75 14.1716 3.42157 13.5 4.25 13.5ZM9.80882 0.5C12.5378 0.5 14.75 2.58933 14.75 5.16667C14.75 7.744 12.5378 9.83333 9.80882 9.83333H5.57353L5.57353 12H2.75V7.16667H9.80882C10.9783 7.16667 11.9265 6.27133 11.9265 5.16667C11.9265 4.06213 10.9783 3.16667 9.80896 3.16667H2.75V0.5H9.80882Z" fill="white"/>
</svg>
